<svg width="147" height="24" viewBox="0 0 147 24" fill="none" xmlns="http://www.w3.org/2000/svg">
<path d="M4.6843 23H0.465554L8.14666 1.18182H13.0259L20.7177 23H16.4989L10.6715 5.65625H10.5011L4.6843 23ZM4.8228 14.4453H16.3285V17.62H4.8228V14.4453ZM29.9409 23.3196C28.4494 23.3196 27.1674 23.0497 26.095 22.5099C25.0225 21.9702 24.1951 21.2422 23.6127 20.326C23.0375 19.4027 22.7498 18.3622 22.7498 17.2045C22.7498 16.331 22.9274 15.5568 23.2825 14.8821C23.6447 14.2074 24.1419 13.5824 24.774 13.0071C25.4132 12.4318 26.1518 11.8601 26.9899 11.2919L30.8571 8.66051C31.4252 8.29119 31.8549 7.90057 32.1461 7.48864C32.4444 7.0767 32.5936 6.59375 32.5936 6.03977C32.5936 5.57102 32.3947 5.12713 31.997 4.7081C31.6064 4.28906 31.0666 4.07955 30.3777 4.07955C29.916 4.07955 29.5076 4.18963 29.1525 4.4098C28.8045 4.62287 28.5311 4.90341 28.3322 5.25142C28.1404 5.59943 28.0446 5.96875 28.0446 6.35938C28.0446 6.83523 28.176 7.31818 28.4387 7.80824C28.7086 8.2983 29.0566 8.80611 29.4828 9.33168C29.916 9.85724 30.3777 10.4148 30.8677 11.0043L41.1056 23H36.9295L28.4281 13.2628C27.796 12.5241 27.1852 11.7962 26.5957 11.0788C26.0133 10.3615 25.5339 9.61577 25.1575 8.84162C24.7882 8.06037 24.6035 7.2152 24.6035 6.30611C24.6035 5.27628 24.8414 4.35653 25.3173 3.54688C25.7931 2.73011 26.4572 2.08736 27.3095 1.61861C28.1689 1.14986 29.1738 0.915483 30.3244 0.915483C31.475 0.915483 32.4622 1.14276 33.286 1.5973C34.1099 2.05185 34.7456 2.65554 35.193 3.40838C35.6404 4.16122 35.8642 4.98153 35.8642 5.86932C35.8642 6.89915 35.6085 7.82244 35.0971 8.6392C34.5858 9.44886 33.8755 10.1839 32.9664 10.8445L28.5559 14.0724C27.8315 14.598 27.313 15.1307 27.0005 15.6705C26.688 16.2031 26.5318 16.6577 26.5318 17.0341C26.5318 17.6094 26.6774 18.1314 26.9686 18.6001C27.2598 19.0689 27.6681 19.4453 28.1937 19.7294C28.7264 20.0064 29.3478 20.1449 30.0581 20.1449C30.8393 20.1449 31.6099 19.9709 32.3699 19.6229C33.1298 19.2678 33.8223 18.7635 34.4473 18.1101C35.0723 17.4567 35.5694 16.6754 35.9387 15.7663C36.3081 14.8501 36.4927 13.8345 36.4927 12.7195H39.8059C39.8059 14.0973 39.6532 15.2976 39.3478 16.3203C39.0424 17.3359 38.6483 18.1953 38.1653 18.8984C37.6824 19.5945 37.171 20.152 36.6312 20.571C36.4608 20.6918 36.2974 20.8125 36.1412 20.9332C35.9849 21.054 35.8216 21.1747 35.6511 21.2955C34.8841 21.9915 33.9856 22.5028 32.9558 22.8295C31.9331 23.1562 30.9281 23.3196 29.9409 23.3196ZM43.484 23V1.18182H47.4364V19.6868H57.0458V23H43.484ZM85.8473 1.18182V23H82.3317L72.0511 8.13849H71.87V23H67.9176V1.18182H71.4545L81.7244 16.054H81.9162V1.18182H85.8473ZM97.2278 23.3196C95.5872 23.3196 94.1703 22.9787 92.9771 22.2969C91.791 21.608 90.8784 20.6349 90.2392 19.3778C89.6 18.1136 89.2804 16.6257 89.2804 14.9141C89.2804 13.2308 89.6 11.7536 90.2392 10.4822C90.8855 9.20383 91.7875 8.20952 92.9451 7.49929C94.1028 6.78196 95.4629 6.4233 97.0254 6.4233C98.0339 6.4233 98.9856 6.58665 99.8805 6.91335C100.782 7.23295 101.578 7.73011 102.267 8.40483C102.963 9.07955 103.51 9.93892 103.907 10.983C104.305 12.0199 104.504 13.2557 104.504 14.6903V15.8729H91.0914V13.2734H100.807C100.8 12.5348 100.64 11.8778 100.328 11.3026C100.015 10.7202 99.5787 10.2621 99.0176 9.92827C98.4636 9.59446 97.8173 9.42756 97.0787 9.42756C96.2903 9.42756 95.5978 9.61932 95.0012 10.0028C94.4047 10.3793 93.9395 10.8764 93.6056 11.4943C93.2789 12.1051 93.112 12.7763 93.1049 13.5078V15.777C93.1049 16.7287 93.2789 17.5455 93.627 18.2273C93.975 18.902 94.4615 19.4205 95.0865 19.7827C95.7115 20.1378 96.443 20.3153 97.2811 20.3153C97.8422 20.3153 98.35 20.2372 98.8045 20.081C99.2591 19.9176 99.6532 19.6797 99.987 19.3672C100.321 19.0547 100.573 18.6676 100.743 18.206L104.344 18.6108C104.117 19.5625 103.684 20.3935 103.045 21.1037C102.412 21.8068 101.603 22.3537 100.616 22.7443C99.6284 23.1278 98.4991 23.3196 97.2278 23.3196ZM111.056 23L106.432 6.63636H110.363L113.24 18.142H113.389L116.329 6.63636H120.218L123.158 18.0781H123.318L126.152 6.63636H130.094L125.459 23H121.443L118.375 11.9418H118.151L115.083 23H111.056ZM145.719 10.9616L142.204 11.3452C142.104 10.9901 141.93 10.6562 141.682 10.3438C141.44 10.0312 141.114 9.77912 140.702 9.58736C140.29 9.3956 139.786 9.29972 139.189 9.29972C138.386 9.29972 137.712 9.47372 137.165 9.82173C136.625 10.1697 136.359 10.6207 136.366 11.1747C136.359 11.6506 136.533 12.0376 136.888 12.3359C137.25 12.6342 137.847 12.8793 138.678 13.071L141.469 13.6676C143.017 14.0014 144.168 14.5305 144.92 15.255C145.68 15.9794 146.064 16.9276 146.071 18.0994C146.064 19.1293 145.762 20.0384 145.165 20.8267C144.576 21.608 143.756 22.2187 142.705 22.6591C141.653 23.0994 140.446 23.3196 139.082 23.3196C137.08 23.3196 135.467 22.9006 134.246 22.0625C133.024 21.2173 132.296 20.0419 132.062 18.5362L135.822 18.174C135.993 18.9126 136.355 19.4702 136.909 19.8466C137.463 20.223 138.184 20.4112 139.072 20.4112C139.988 20.4112 140.723 20.223 141.277 19.8466C141.838 19.4702 142.119 19.005 142.119 18.451C142.119 17.9822 141.938 17.5952 141.575 17.2898C141.22 16.9844 140.666 16.75 139.913 16.5866L137.122 16.0007C135.553 15.674 134.391 15.1236 133.638 14.3494C132.886 13.5682 132.513 12.581 132.52 11.3878C132.513 10.3793 132.786 9.50568 133.34 8.76704C133.901 8.02131 134.679 7.44602 135.673 7.04119C136.675 6.62926 137.829 6.4233 139.136 6.4233C141.053 6.4233 142.563 6.83168 143.663 7.64844C144.771 8.4652 145.457 9.5696 145.719 10.9616Z" fill="#E1E1E6"/>
</svg>
