<svg width="115" height="30" viewBox="0 0 115 30" fill="none" xmlns="http://www.w3.org/2000/svg">
<path d="M1.09286 23V6.63636H4.9494V23H1.09286ZM3.03178 4.31392C2.42099 4.31392 1.89542 4.11151 1.45508 3.70668C1.01474 3.29474 0.794567 2.80114 0.794567 2.22585C0.794567 1.64347 1.01474 1.14986 1.45508 0.745027C1.89542 0.333096 2.42099 0.12713 3.03178 0.12713C3.64968 0.12713 4.17525 0.333096 4.60849 0.745027C5.04883 1.14986 5.269 1.64347 5.269 2.22585C5.269 2.80114 5.04883 3.29474 4.60849 3.70668C4.17525 4.11151 3.64968 4.31392 3.03178 4.31392ZM16.0316 29.4773C14.6467 29.4773 13.457 29.2891 12.4627 28.9126C11.4684 28.5433 10.6694 28.0462 10.0657 27.4212C9.462 26.7962 9.04297 26.1037 8.80859 25.3438L12.2816 24.5021C12.4379 24.8217 12.6651 25.1378 12.9634 25.4503C13.2617 25.7699 13.663 26.0327 14.1673 26.2386C14.6786 26.4517 15.3214 26.5582 16.0955 26.5582C17.1893 26.5582 18.0948 26.2919 18.8121 25.7592C19.5295 25.2337 19.8881 24.3672 19.8881 23.1598V20.0597H19.6964C19.4975 20.4574 19.2063 20.8658 18.8228 21.2848C18.4464 21.7038 17.9457 22.0554 17.3207 22.3395C16.7028 22.6236 15.9251 22.7656 14.9876 22.7656C13.7305 22.7656 12.5906 22.4709 11.5678 21.8814C10.5522 21.2848 9.74254 20.397 9.13885 19.218C8.54226 18.032 8.24396 16.5476 8.24396 14.7649C8.24396 12.968 8.54226 11.4517 9.13885 10.2159C9.74254 8.97301 10.5558 8.03196 11.5785 7.39276C12.6012 6.74645 13.7411 6.4233 14.9982 6.4233C15.957 6.4233 16.7454 6.58665 17.3633 6.91335C17.9883 7.23295 18.4854 7.62003 18.8548 8.07457C19.2241 8.52202 19.5046 8.9446 19.6964 9.34233H19.9094V6.63636H23.7127V23.2663C23.7127 24.6655 23.3789 25.8232 22.7113 26.7393C22.0437 27.6555 21.131 28.3409 19.9734 28.7955C18.8157 29.25 17.5018 29.4773 16.0316 29.4773ZM16.0636 19.7401C16.8803 19.7401 17.5763 19.5412 18.1516 19.1435C18.7269 18.7457 19.1637 18.174 19.462 17.4283C19.7603 16.6825 19.9094 15.7876 19.9094 14.7436C19.9094 13.7138 19.7603 12.8118 19.462 12.0376C19.1708 11.2635 18.7376 10.6634 18.1623 10.2372C17.5941 9.80398 16.8945 9.58736 16.0636 9.58736C15.2042 9.58736 14.4869 9.81108 13.9116 10.2585C13.3363 10.706 12.9031 11.3203 12.6119 12.1016C12.3207 12.8757 12.1751 13.7564 12.1751 14.7436C12.1751 15.745 12.3207 16.6222 12.6119 17.375C12.9102 18.1207 13.3469 18.7031 13.9222 19.1222C14.5046 19.5341 15.2184 19.7401 16.0636 19.7401ZM30.0408 23.2344C29.3945 23.2344 28.8406 23.0071 28.3789 22.5526C27.9173 22.098 27.69 21.544 27.6971 20.8906C27.69 20.2514 27.9173 19.7045 28.3789 19.25C28.8406 18.7955 29.3945 18.5682 30.0408 18.5682C30.6658 18.5682 31.2092 18.7955 31.6708 19.25C32.1396 19.7045 32.3775 20.2514 32.3846 20.8906C32.3775 21.3239 32.2638 21.718 32.0437 22.0732C31.8306 22.4283 31.5465 22.7124 31.1914 22.9254C30.8434 23.1314 30.4599 23.2344 30.0408 23.2344ZM54.4664 1.18182V23H50.9508L40.6703 8.13849H40.4892V23H36.5368V1.18182H40.0737L50.3436 16.054H50.5353V1.18182H54.4664ZM65.8469 23.3196C64.2063 23.3196 62.7894 22.9787 61.5962 22.2969C60.4102 21.608 59.4975 20.6349 58.8583 19.3778C58.2191 18.1136 57.8995 16.6257 57.8995 14.9141C57.8995 13.2308 58.2191 11.7536 58.8583 10.4822C59.5046 9.20383 60.4066 8.20952 61.5643 7.49929C62.7219 6.78196 64.082 6.4233 65.6445 6.4233C66.6531 6.4233 67.6048 6.58665 68.4996 6.91335C69.4016 7.23295 70.1971 7.73011 70.886 8.40483C71.582 9.07955 72.1289 9.93892 72.5266 10.983C72.9244 12.0199 73.1232 13.2557 73.1232 14.6903V15.8729H59.7106V13.2734H69.4265C69.4194 12.5348 69.2596 11.8778 68.9471 11.3026C68.6346 10.7202 68.1978 10.2621 67.6367 9.92827C67.0827 9.59446 66.4364 9.42756 65.6978 9.42756C64.9094 9.42756 64.217 9.61932 63.6204 10.0028C63.0238 10.3793 62.5586 10.8764 62.2248 11.4943C61.8981 12.1051 61.7312 12.7763 61.7241 13.5078V15.777C61.7241 16.7287 61.8981 17.5455 62.2461 18.2273C62.5941 18.902 63.0806 19.4205 63.7056 19.7827C64.3306 20.1378 65.0621 20.3153 65.9002 20.3153C66.4613 20.3153 66.9691 20.2372 67.4237 20.081C67.8782 19.9176 68.2724 19.6797 68.6062 19.3672C68.94 19.0547 69.1921 18.6676 69.3626 18.206L72.9634 18.6108C72.7362 19.5625 72.3029 20.3935 71.6637 21.1037C71.0316 21.8068 70.2219 22.3537 69.2347 22.7443C68.2475 23.1278 67.1183 23.3196 65.8469 23.3196ZM79.6751 23L75.0515 6.63636H78.9826L81.859 18.142H82.0082L84.9485 6.63636H88.837L91.7773 18.0781H91.9371L94.771 6.63636H98.7127L94.0785 23H90.0621L86.994 11.9418H86.7702L83.7021 23H79.6751ZM114.339 10.9616L110.823 11.3452C110.724 10.9901 110.55 10.6562 110.301 10.3438C110.059 10.0312 109.733 9.77912 109.321 9.58736C108.909 9.3956 108.405 9.29972 107.808 9.29972C107.006 9.29972 106.331 9.47372 105.784 9.82173C105.244 10.1697 104.978 10.6207 104.985 11.1747C104.978 11.6506 105.152 12.0376 105.507 12.3359C105.869 12.6342 106.466 12.8793 107.297 13.071L110.088 13.6676C111.636 14.0014 112.787 14.5305 113.54 15.255C114.3 15.9794 114.683 16.9276 114.69 18.0994C114.683 19.1293 114.381 20.0384 113.785 20.8267C113.195 21.608 112.375 22.2187 111.324 22.6591C110.273 23.0994 109.065 23.3196 107.702 23.3196C105.699 23.3196 104.086 22.9006 102.865 22.0625C101.643 21.2173 100.915 20.0419 100.681 18.5362L104.442 18.174C104.612 18.9126 104.974 19.4702 105.528 19.8466C106.082 20.223 106.803 20.4112 107.691 20.4112C108.607 20.4112 109.342 20.223 109.896 19.8466C110.457 19.4702 110.738 19.005 110.738 18.451C110.738 17.9822 110.557 17.5952 110.194 17.2898C109.839 16.9844 109.285 16.75 108.532 16.5866L105.741 16.0007C104.172 15.674 103.01 15.1236 102.258 14.3494C101.505 13.5682 101.132 12.581 101.139 11.3878C101.132 10.3793 101.405 9.50568 101.959 8.76704C102.52 8.02131 103.298 7.44602 104.292 7.04119C105.294 6.62926 106.448 6.4233 107.755 6.4233C109.672 6.4233 111.182 6.83168 112.282 7.64844C113.39 8.4652 114.076 9.5696 114.339 10.9616Z" fill="#E1E1E6"/>
</svg>
